<mxfile host="Electron" modified="2023-09-17T17:50:27.221Z" agent="Mozilla/5.0 (Windows NT 10.0; Win64; x64) AppleWebKit/537.36 (KHTML, like Gecko) draw.io/21.7.5 Chrome/114.0.5735.289 Electron/25.8.1 Safari/537.36" etag="3bdOWFSBom6UymqxPWZa" version="21.7.5" type="device">
  <diagram name="Page-1" id="2e-hiuzwhLOACdA4XcuX">
    <mxGraphModel dx="1759" dy="543" grid="1" gridSize="10" guides="1" tooltips="1" connect="1" arrows="1" fold="1" page="1" pageScale="1" pageWidth="850" pageHeight="1100" math="0" shadow="0">
      <root>
        <mxCell id="0" />
        <mxCell id="1" parent="0" />
        <mxCell id="mY_ouZyj6XTswNFIIjPH-1" value="STUDENT" style="whiteSpace=wrap;html=1;align=center;" parent="1" vertex="1">
          <mxGeometry x="-30" y="150" width="100" height="40" as="geometry" />
        </mxCell>
        <mxCell id="mY_ouZyj6XTswNFIIjPH-7" value="COURSE_UNIT" style="whiteSpace=wrap;html=1;align=center;" parent="1" vertex="1">
          <mxGeometry x="520" y="160" width="100" height="40" as="geometry" />
        </mxCell>
        <mxCell id="mY_ouZyj6XTswNFIIjPH-8" value="&lt;u&gt;REG_no&lt;/u&gt;" style="ellipse;whiteSpace=wrap;html=1;align=center;" parent="1" vertex="1">
          <mxGeometry x="-50" y="30" width="60" height="30" as="geometry" />
        </mxCell>
        <mxCell id="mY_ouZyj6XTswNFIIjPH-9" value="Age" style="ellipse;whiteSpace=wrap;html=1;align=center;dashed=1;" parent="1" vertex="1">
          <mxGeometry x="-149.97" y="135" width="60" height="30" as="geometry" />
        </mxCell>
        <mxCell id="mY_ouZyj6XTswNFIIjPH-11" value="DoB" style="ellipse;whiteSpace=wrap;html=1;align=center;" parent="1" vertex="1">
          <mxGeometry x="-129.97" y="60" width="60" height="30" as="geometry" />
        </mxCell>
        <mxCell id="mY_ouZyj6XTswNFIIjPH-12" value="Dep_name" style="ellipse;whiteSpace=wrap;html=1;align=center;" parent="1" vertex="1">
          <mxGeometry x="-149.97" y="180" width="80" height="30" as="geometry" />
        </mxCell>
        <mxCell id="mY_ouZyj6XTswNFIIjPH-13" value="Status" style="ellipse;whiteSpace=wrap;html=1;align=center;" parent="1" vertex="1">
          <mxGeometry x="-160" y="225" width="60" height="30" as="geometry" />
        </mxCell>
        <mxCell id="mY_ouZyj6XTswNFIIjPH-14" value="Email" style="ellipse;whiteSpace=wrap;html=1;align=center;" parent="1" vertex="1">
          <mxGeometry x="-129.97" y="290" width="60" height="30" as="geometry" />
        </mxCell>
        <mxCell id="mY_ouZyj6XTswNFIIjPH-15" value="Phone_no" style="ellipse;shape=doubleEllipse;margin=3;whiteSpace=wrap;html=1;align=center;" parent="1" vertex="1">
          <mxGeometry x="-30" y="300" width="70" height="30" as="geometry" />
        </mxCell>
        <mxCell id="mY_ouZyj6XTswNFIIjPH-18" value="" style="endArrow=none;html=1;rounded=0;exitX=0.5;exitY=1;exitDx=0;exitDy=0;entryX=0.5;entryY=0;entryDx=0;entryDy=0;" parent="1" source="mY_ouZyj6XTswNFIIjPH-8" target="mY_ouZyj6XTswNFIIjPH-1" edge="1">
          <mxGeometry relative="1" as="geometry">
            <mxPoint x="-10" y="70" as="sourcePoint" />
            <mxPoint x="150" y="70" as="targetPoint" />
          </mxGeometry>
        </mxCell>
        <mxCell id="mY_ouZyj6XTswNFIIjPH-20" value="" style="endArrow=none;html=1;rounded=0;exitX=0.758;exitY=0.992;exitDx=0;exitDy=0;exitPerimeter=0;entryX=0.158;entryY=-0.041;entryDx=0;entryDy=0;entryPerimeter=0;" parent="1" target="mY_ouZyj6XTswNFIIjPH-1" edge="1">
          <mxGeometry relative="1" as="geometry">
            <mxPoint x="-84.51999999999998" y="89.75999999999999" as="sourcePoint" />
            <mxPoint x="90" y="90" as="targetPoint" />
          </mxGeometry>
        </mxCell>
        <mxCell id="mY_ouZyj6XTswNFIIjPH-22" value="" style="endArrow=none;html=1;rounded=0;exitX=1;exitY=1;exitDx=0;exitDy=0;entryX=0;entryY=0.25;entryDx=0;entryDy=0;" parent="1" target="mY_ouZyj6XTswNFIIjPH-1" edge="1">
          <mxGeometry relative="1" as="geometry">
            <mxPoint x="-88.78679656440363" y="145.60660171779818" as="sourcePoint" />
            <mxPoint x="-40" y="200" as="targetPoint" />
          </mxGeometry>
        </mxCell>
        <mxCell id="mY_ouZyj6XTswNFIIjPH-23" value="" style="endArrow=none;html=1;rounded=0;exitX=1;exitY=0.5;exitDx=0;exitDy=0;entryX=0;entryY=0.75;entryDx=0;entryDy=0;" parent="1" target="mY_ouZyj6XTswNFIIjPH-1" edge="1">
          <mxGeometry relative="1" as="geometry">
            <mxPoint x="-70" y="195" as="sourcePoint" />
            <mxPoint x="80" y="190" as="targetPoint" />
          </mxGeometry>
        </mxCell>
        <mxCell id="mY_ouZyj6XTswNFIIjPH-25" value="" style="endArrow=none;html=1;rounded=0;exitX=1;exitY=0.5;exitDx=0;exitDy=0;" parent="1" source="mY_ouZyj6XTswNFIIjPH-13" target="mY_ouZyj6XTswNFIIjPH-1" edge="1">
          <mxGeometry relative="1" as="geometry">
            <mxPoint x="-80.58307534194341" y="233.56558881247793" as="sourcePoint" />
            <mxPoint x="-10" y="200" as="targetPoint" />
          </mxGeometry>
        </mxCell>
        <mxCell id="mY_ouZyj6XTswNFIIjPH-26" value="" style="resizable=0;html=1;whiteSpace=wrap;align=right;verticalAlign=bottom;" parent="mY_ouZyj6XTswNFIIjPH-25" connectable="0" vertex="1">
          <mxGeometry x="1" relative="1" as="geometry" />
        </mxCell>
        <mxCell id="mY_ouZyj6XTswNFIIjPH-31" value="" style="endArrow=none;html=1;rounded=0;entryX=0.365;entryY=1.02;entryDx=0;entryDy=0;entryPerimeter=0;exitX=0.5;exitY=0;exitDx=0;exitDy=0;" parent="1" source="mY_ouZyj6XTswNFIIjPH-14" target="mY_ouZyj6XTswNFIIjPH-1" edge="1">
          <mxGeometry relative="1" as="geometry">
            <mxPoint x="-47" y="260" as="sourcePoint" />
            <mxPoint x="27" y="200" as="targetPoint" />
          </mxGeometry>
        </mxCell>
        <mxCell id="mY_ouZyj6XTswNFIIjPH-32" value="" style="resizable=0;html=1;whiteSpace=wrap;align=right;verticalAlign=bottom;" parent="mY_ouZyj6XTswNFIIjPH-31" connectable="0" vertex="1">
          <mxGeometry x="1" relative="1" as="geometry" />
        </mxCell>
        <mxCell id="mY_ouZyj6XTswNFIIjPH-33" value="" style="endArrow=none;html=1;rounded=0;entryX=0.551;entryY=1.02;entryDx=0;entryDy=0;entryPerimeter=0;exitX=0.407;exitY=-0.066;exitDx=0;exitDy=0;exitPerimeter=0;" parent="1" source="mY_ouZyj6XTswNFIIjPH-15" target="mY_ouZyj6XTswNFIIjPH-1" edge="1">
          <mxGeometry relative="1" as="geometry">
            <mxPoint x="20" y="250" as="sourcePoint" />
            <mxPoint x="57" y="161" as="targetPoint" />
          </mxGeometry>
        </mxCell>
        <mxCell id="mY_ouZyj6XTswNFIIjPH-34" value="" style="resizable=0;html=1;whiteSpace=wrap;align=right;verticalAlign=bottom;" parent="mY_ouZyj6XTswNFIIjPH-33" connectable="0" vertex="1">
          <mxGeometry x="1" relative="1" as="geometry" />
        </mxCell>
        <mxCell id="mY_ouZyj6XTswNFIIjPH-35" value="Address" style="ellipse;whiteSpace=wrap;html=1;align=center;" parent="1" vertex="1">
          <mxGeometry x="70" y="270" width="60" height="30" as="geometry" />
        </mxCell>
        <mxCell id="mY_ouZyj6XTswNFIIjPH-36" value="" style="endArrow=none;html=1;rounded=0;exitX=0.882;exitY=1.072;exitDx=0;exitDy=0;exitPerimeter=0;entryX=0.287;entryY=0.049;entryDx=0;entryDy=0;entryPerimeter=0;" parent="1" source="mY_ouZyj6XTswNFIIjPH-1" target="mY_ouZyj6XTswNFIIjPH-35" edge="1">
          <mxGeometry relative="1" as="geometry">
            <mxPoint x="80" y="174.66" as="sourcePoint" />
            <mxPoint x="240" y="174.66" as="targetPoint" />
          </mxGeometry>
        </mxCell>
        <mxCell id="mY_ouZyj6XTswNFIIjPH-38" value="Name" style="ellipse;whiteSpace=wrap;html=1;align=center;" parent="1" vertex="1">
          <mxGeometry x="50" y="80" width="70" height="30" as="geometry" />
        </mxCell>
        <mxCell id="mY_ouZyj6XTswNFIIjPH-39" value="Fname" style="ellipse;whiteSpace=wrap;html=1;align=center;" parent="1" vertex="1">
          <mxGeometry x="57.5" y="10" width="70" height="30" as="geometry" />
        </mxCell>
        <mxCell id="mY_ouZyj6XTswNFIIjPH-40" value="Lname" style="ellipse;whiteSpace=wrap;html=1;align=center;" parent="1" vertex="1">
          <mxGeometry x="140" y="40" width="70" height="30" as="geometry" />
        </mxCell>
        <mxCell id="mY_ouZyj6XTswNFIIjPH-41" value="" style="endArrow=none;html=1;rounded=0;exitX=0.5;exitY=1;exitDx=0;exitDy=0;entryX=0.5;entryY=0;entryDx=0;entryDy=0;" parent="1" target="mY_ouZyj6XTswNFIIjPH-38" edge="1">
          <mxGeometry relative="1" as="geometry">
            <mxPoint x="85" y="40" as="sourcePoint" />
            <mxPoint x="130" y="140" as="targetPoint" />
          </mxGeometry>
        </mxCell>
        <mxCell id="mY_ouZyj6XTswNFIIjPH-42" value="" style="endArrow=none;html=1;rounded=0;exitX=0.5;exitY=1;exitDx=0;exitDy=0;entryX=0.96;entryY=0.348;entryDx=0;entryDy=0;entryPerimeter=0;" parent="1" source="mY_ouZyj6XTswNFIIjPH-40" target="mY_ouZyj6XTswNFIIjPH-38" edge="1">
          <mxGeometry relative="1" as="geometry">
            <mxPoint x="170" y="70" as="sourcePoint" />
            <mxPoint x="170" y="110" as="targetPoint" />
          </mxGeometry>
        </mxCell>
        <mxCell id="mY_ouZyj6XTswNFIIjPH-43" value="Enrolls" style="shape=rhombus;perimeter=rhombusPerimeter;whiteSpace=wrap;html=1;align=center;" parent="1" vertex="1">
          <mxGeometry x="190" y="145" width="90" height="50" as="geometry" />
        </mxCell>
        <mxCell id="mY_ouZyj6XTswNFIIjPH-44" value="" style="endArrow=none;html=1;rounded=0;entryX=0;entryY=0.5;entryDx=0;entryDy=0;exitX=1;exitY=0.5;exitDx=0;exitDy=0;" parent="1" source="mY_ouZyj6XTswNFIIjPH-1" target="mY_ouZyj6XTswNFIIjPH-43" edge="1">
          <mxGeometry relative="1" as="geometry">
            <mxPoint x="80" y="170" as="sourcePoint" />
            <mxPoint x="230" y="169.66" as="targetPoint" />
          </mxGeometry>
        </mxCell>
        <mxCell id="mY_ouZyj6XTswNFIIjPH-45" value="N" style="resizable=0;html=1;whiteSpace=wrap;align=right;verticalAlign=bottom;" parent="mY_ouZyj6XTswNFIIjPH-44" connectable="0" vertex="1">
          <mxGeometry x="1" relative="1" as="geometry">
            <mxPoint x="-105" as="offset" />
          </mxGeometry>
        </mxCell>
        <mxCell id="mY_ouZyj6XTswNFIIjPH-46" value="" style="endArrow=none;html=1;rounded=0;entryX=0;entryY=0.5;entryDx=0;entryDy=0;exitX=1;exitY=0.5;exitDx=0;exitDy=0;" parent="1" source="mY_ouZyj6XTswNFIIjPH-43" target="mY_ouZyj6XTswNFIIjPH-7" edge="1">
          <mxGeometry relative="1" as="geometry">
            <mxPoint x="310" y="200" as="sourcePoint" />
            <mxPoint x="470" y="200" as="targetPoint" />
          </mxGeometry>
        </mxCell>
        <mxCell id="mY_ouZyj6XTswNFIIjPH-47" value="M" style="resizable=0;html=1;whiteSpace=wrap;align=right;verticalAlign=bottom;" parent="mY_ouZyj6XTswNFIIjPH-46" connectable="0" vertex="1">
          <mxGeometry x="1" relative="1" as="geometry">
            <mxPoint x="-10" as="offset" />
          </mxGeometry>
        </mxCell>
        <mxCell id="mY_ouZyj6XTswNFIIjPH-48" value="&lt;u&gt;Course_code&lt;/u&gt;" style="ellipse;whiteSpace=wrap;html=1;align=center;" parent="1" vertex="1">
          <mxGeometry x="500" y="30" width="90" height="30" as="geometry" />
        </mxCell>
        <mxCell id="mY_ouZyj6XTswNFIIjPH-49" value="Name" style="ellipse;whiteSpace=wrap;html=1;align=center;" parent="1" vertex="1">
          <mxGeometry x="610" y="30" width="70" height="30" as="geometry" />
        </mxCell>
        <mxCell id="mY_ouZyj6XTswNFIIjPH-50" value="Type" style="ellipse;whiteSpace=wrap;html=1;align=center;" parent="1" vertex="1">
          <mxGeometry x="690" y="50" width="70" height="30" as="geometry" />
        </mxCell>
        <mxCell id="mY_ouZyj6XTswNFIIjPH-51" value="Credits" style="ellipse;whiteSpace=wrap;html=1;align=center;" parent="1" vertex="1">
          <mxGeometry x="710" y="110" width="70" height="30" as="geometry" />
        </mxCell>
        <mxCell id="mY_ouZyj6XTswNFIIjPH-52" value="Lecturer_in_charge" style="ellipse;whiteSpace=wrap;html=1;align=center;" parent="1" vertex="1">
          <mxGeometry x="710" y="165" width="130" height="30" as="geometry" />
        </mxCell>
        <mxCell id="mY_ouZyj6XTswNFIIjPH-53" value="Lecture_hours" style="ellipse;whiteSpace=wrap;html=1;align=center;" parent="1" vertex="1">
          <mxGeometry x="690" y="230" width="110" height="30" as="geometry" />
        </mxCell>
        <mxCell id="mY_ouZyj6XTswNFIIjPH-54" value="" style="endArrow=none;html=1;rounded=0;entryX=0.25;entryY=0;entryDx=0;entryDy=0;exitX=0.5;exitY=1;exitDx=0;exitDy=0;" parent="1" source="mY_ouZyj6XTswNFIIjPH-48" target="mY_ouZyj6XTswNFIIjPH-7" edge="1">
          <mxGeometry relative="1" as="geometry">
            <mxPoint x="560" y="70" as="sourcePoint" />
            <mxPoint x="600" y="150" as="targetPoint" />
          </mxGeometry>
        </mxCell>
        <mxCell id="mY_ouZyj6XTswNFIIjPH-55" value="" style="endArrow=none;html=1;rounded=0;entryX=0.5;entryY=0;entryDx=0;entryDy=0;exitX=0.389;exitY=1.038;exitDx=0;exitDy=0;exitPerimeter=0;" parent="1" source="mY_ouZyj6XTswNFIIjPH-49" target="mY_ouZyj6XTswNFIIjPH-7" edge="1">
          <mxGeometry relative="1" as="geometry">
            <mxPoint x="630" y="60" as="sourcePoint" />
            <mxPoint x="660" y="160" as="targetPoint" />
          </mxGeometry>
        </mxCell>
        <mxCell id="mY_ouZyj6XTswNFIIjPH-56" value="" style="endArrow=none;html=1;rounded=0;entryX=0.75;entryY=0;entryDx=0;entryDy=0;" parent="1" source="mY_ouZyj6XTswNFIIjPH-50" target="mY_ouZyj6XTswNFIIjPH-7" edge="1">
          <mxGeometry relative="1" as="geometry">
            <mxPoint x="699.3099999999997" y="92.41999999999997" as="sourcePoint" />
            <mxPoint x="647.5999999999999" y="160" as="targetPoint" />
          </mxGeometry>
        </mxCell>
        <mxCell id="mY_ouZyj6XTswNFIIjPH-57" value="" style="endArrow=none;html=1;rounded=0;entryX=1;entryY=0.25;entryDx=0;entryDy=0;exitX=0;exitY=1;exitDx=0;exitDy=0;" parent="1" source="mY_ouZyj6XTswNFIIjPH-51" target="mY_ouZyj6XTswNFIIjPH-7" edge="1">
          <mxGeometry relative="1" as="geometry">
            <mxPoint x="720" y="130" as="sourcePoint" />
            <mxPoint x="645" y="170" as="targetPoint" />
          </mxGeometry>
        </mxCell>
        <mxCell id="mY_ouZyj6XTswNFIIjPH-60" value="" style="endArrow=none;html=1;rounded=0;entryX=1;entryY=0.75;entryDx=0;entryDy=0;exitX=0;exitY=0.5;exitDx=0;exitDy=0;" parent="1" source="mY_ouZyj6XTswNFIIjPH-52" target="mY_ouZyj6XTswNFIIjPH-7" edge="1">
          <mxGeometry relative="1" as="geometry">
            <mxPoint x="690" y="180" as="sourcePoint" />
            <mxPoint x="613" y="261" as="targetPoint" />
          </mxGeometry>
        </mxCell>
        <mxCell id="mY_ouZyj6XTswNFIIjPH-61" value="" style="endArrow=none;html=1;rounded=0;entryX=0.931;entryY=1.028;entryDx=0;entryDy=0;exitX=0.034;exitY=0.176;exitDx=0;exitDy=0;exitPerimeter=0;entryPerimeter=0;" parent="1" source="mY_ouZyj6XTswNFIIjPH-53" target="mY_ouZyj6XTswNFIIjPH-7" edge="1">
          <mxGeometry relative="1" as="geometry">
            <mxPoint x="710" y="234" as="sourcePoint" />
            <mxPoint x="645" y="236" as="targetPoint" />
          </mxGeometry>
        </mxCell>
        <mxCell id="mY_ouZyj6XTswNFIIjPH-62" value="Has" style="shape=rhombus;perimeter=rhombusPerimeter;whiteSpace=wrap;html=1;align=center;" parent="1" vertex="1">
          <mxGeometry x="10" y="350" width="90" height="50" as="geometry" />
        </mxCell>
        <mxCell id="mY_ouZyj6XTswNFIIjPH-63" value="" style="endArrow=none;html=1;rounded=0;exitX=0.75;exitY=1;exitDx=0;exitDy=0;entryX=0.5;entryY=0;entryDx=0;entryDy=0;" parent="1" source="mY_ouZyj6XTswNFIIjPH-1" target="mY_ouZyj6XTswNFIIjPH-62" edge="1">
          <mxGeometry relative="1" as="geometry">
            <mxPoint x="50" y="220" as="sourcePoint" />
            <mxPoint x="210" y="220" as="targetPoint" />
          </mxGeometry>
        </mxCell>
        <mxCell id="mY_ouZyj6XTswNFIIjPH-65" value="ATTENDENCE" style="whiteSpace=wrap;html=1;align=center;" parent="1" vertex="1">
          <mxGeometry x="70" y="460" width="100" height="40" as="geometry" />
        </mxCell>
        <mxCell id="mY_ouZyj6XTswNFIIjPH-66" value="" style="endArrow=none;html=1;rounded=0;exitX=0.5;exitY=1;exitDx=0;exitDy=0;entryX=0.5;entryY=0;entryDx=0;entryDy=0;" parent="1" source="mY_ouZyj6XTswNFIIjPH-62" target="mY_ouZyj6XTswNFIIjPH-65" edge="1">
          <mxGeometry relative="1" as="geometry">
            <mxPoint x="210" y="460" as="sourcePoint" />
            <mxPoint x="370" y="460" as="targetPoint" />
          </mxGeometry>
        </mxCell>
        <mxCell id="mY_ouZyj6XTswNFIIjPH-67" value="N" style="resizable=0;html=1;whiteSpace=wrap;align=right;verticalAlign=bottom;" parent="mY_ouZyj6XTswNFIIjPH-66" connectable="0" vertex="1">
          <mxGeometry x="1" relative="1" as="geometry">
            <mxPoint x="-20" y="-30" as="offset" />
          </mxGeometry>
        </mxCell>
        <mxCell id="mY_ouZyj6XTswNFIIjPH-69" value="&lt;u&gt;Attendence_Id&lt;/u&gt;" style="ellipse;whiteSpace=wrap;html=1;align=center;" parent="1" vertex="1">
          <mxGeometry x="265.03" y="390" width="120" height="30" as="geometry" />
        </mxCell>
        <mxCell id="mY_ouZyj6XTswNFIIjPH-70" value="Course_name" style="ellipse;whiteSpace=wrap;html=1;align=center;" parent="1" vertex="1">
          <mxGeometry x="280" y="475" width="90" height="30" as="geometry" />
        </mxCell>
        <mxCell id="mY_ouZyj6XTswNFIIjPH-71" value="Type" style="ellipse;whiteSpace=wrap;html=1;align=center;" parent="1" vertex="1">
          <mxGeometry x="210" y="530" width="60" height="30" as="geometry" />
        </mxCell>
        <mxCell id="mY_ouZyj6XTswNFIIjPH-72" value="Lecture_time_per_session" style="ellipse;whiteSpace=wrap;html=1;align=center;" parent="1" vertex="1">
          <mxGeometry x="50" y="570" width="165" height="30" as="geometry" />
        </mxCell>
        <mxCell id="mY_ouZyj6XTswNFIIjPH-73" value="Medical_submit_status" style="ellipse;whiteSpace=wrap;html=1;align=center;" parent="1" vertex="1">
          <mxGeometry x="-180" y="540" width="140" height="30" as="geometry" />
        </mxCell>
        <mxCell id="mY_ouZyj6XTswNFIIjPH-74" value="No_Sessions&amp;nbsp;" style="ellipse;whiteSpace=wrap;html=1;align=center;" parent="1" vertex="1">
          <mxGeometry x="-100" y="490" width="100" height="30" as="geometry" />
        </mxCell>
        <mxCell id="mY_ouZyj6XTswNFIIjPH-75" value="Date" style="ellipse;whiteSpace=wrap;html=1;align=center;" parent="1" vertex="1">
          <mxGeometry x="-50" y="430" width="60" height="30" as="geometry" />
        </mxCell>
        <mxCell id="mY_ouZyj6XTswNFIIjPH-79" value="" style="endArrow=none;html=1;rounded=0;exitX=0.347;exitY=0.989;exitDx=0;exitDy=0;entryX=1;entryY=0.25;entryDx=0;entryDy=0;exitPerimeter=0;" parent="1" source="mY_ouZyj6XTswNFIIjPH-69" target="mY_ouZyj6XTswNFIIjPH-65" edge="1">
          <mxGeometry relative="1" as="geometry">
            <mxPoint x="247" y="431" as="sourcePoint" />
            <mxPoint x="180" y="460" as="targetPoint" />
          </mxGeometry>
        </mxCell>
        <mxCell id="mY_ouZyj6XTswNFIIjPH-80" value="" style="endArrow=none;html=1;rounded=0;exitX=0;exitY=0.5;exitDx=0;exitDy=0;entryX=1;entryY=0.75;entryDx=0;entryDy=0;" parent="1" target="mY_ouZyj6XTswNFIIjPH-65" edge="1" source="mY_ouZyj6XTswNFIIjPH-70">
          <mxGeometry relative="1" as="geometry">
            <mxPoint x="220" y="470" as="sourcePoint" />
            <mxPoint x="190" y="460" as="targetPoint" />
          </mxGeometry>
        </mxCell>
        <mxCell id="mY_ouZyj6XTswNFIIjPH-81" value="" style="endArrow=none;html=1;rounded=0;entryX=0.875;entryY=1.033;entryDx=0;entryDy=0;entryPerimeter=0;exitX=0.306;exitY=0.017;exitDx=0;exitDy=0;exitPerimeter=0;" parent="1" source="mY_ouZyj6XTswNFIIjPH-71" target="mY_ouZyj6XTswNFIIjPH-65" edge="1">
          <mxGeometry relative="1" as="geometry">
            <mxPoint x="220" y="530" as="sourcePoint" />
            <mxPoint x="140" y="490" as="targetPoint" />
          </mxGeometry>
        </mxCell>
        <mxCell id="mY_ouZyj6XTswNFIIjPH-82" value="" style="endArrow=none;html=1;rounded=0;exitX=0.5;exitY=0;exitDx=0;exitDy=0;entryX=0.5;entryY=1;entryDx=0;entryDy=0;" parent="1" source="mY_ouZyj6XTswNFIIjPH-72" target="mY_ouZyj6XTswNFIIjPH-65" edge="1">
          <mxGeometry relative="1" as="geometry">
            <mxPoint x="309" y="574" as="sourcePoint" />
            <mxPoint x="110" y="490" as="targetPoint" />
          </mxGeometry>
        </mxCell>
        <mxCell id="mY_ouZyj6XTswNFIIjPH-83" value="" style="endArrow=none;html=1;rounded=0;exitX=0.637;exitY=0.044;exitDx=0;exitDy=0;entryX=0.08;entryY=1.025;entryDx=0;entryDy=0;entryPerimeter=0;exitPerimeter=0;" parent="1" source="mY_ouZyj6XTswNFIIjPH-73" target="mY_ouZyj6XTswNFIIjPH-65" edge="1">
          <mxGeometry relative="1" as="geometry">
            <mxPoint x="250" y="610" as="sourcePoint" />
            <mxPoint x="80" y="500" as="targetPoint" />
          </mxGeometry>
        </mxCell>
        <mxCell id="mY_ouZyj6XTswNFIIjPH-84" value="" style="endArrow=none;html=1;rounded=0;exitX=1;exitY=0.5;exitDx=0;exitDy=0;entryX=0;entryY=0.75;entryDx=0;entryDy=0;" parent="1" source="mY_ouZyj6XTswNFIIjPH-74" target="mY_ouZyj6XTswNFIIjPH-65" edge="1">
          <mxGeometry relative="1" as="geometry">
            <mxPoint x="120" y="604" as="sourcePoint" />
            <mxPoint x="159" y="540" as="targetPoint" />
          </mxGeometry>
        </mxCell>
        <mxCell id="mY_ouZyj6XTswNFIIjPH-85" value="" style="endArrow=none;html=1;rounded=0;exitX=0;exitY=0.5;exitDx=0;exitDy=0;entryX=1;entryY=0.5;entryDx=0;entryDy=0;" parent="1" source="mY_ouZyj6XTswNFIIjPH-65" target="mY_ouZyj6XTswNFIIjPH-75" edge="1">
          <mxGeometry relative="1" as="geometry">
            <mxPoint x="110" y="450" as="sourcePoint" />
            <mxPoint x="98" y="529" as="targetPoint" />
          </mxGeometry>
        </mxCell>
        <mxCell id="mY_ouZyj6XTswNFIIjPH-89" value="HAS" style="shape=rhombus;perimeter=rhombusPerimeter;whiteSpace=wrap;html=1;align=center;" parent="1" vertex="1">
          <mxGeometry x="540" y="240" width="90" height="50" as="geometry" />
        </mxCell>
        <mxCell id="mY_ouZyj6XTswNFIIjPH-91" value="1" style="resizable=0;html=1;whiteSpace=wrap;align=right;verticalAlign=bottom;" parent="1" connectable="0" vertex="1">
          <mxGeometry x="127.49516710657713" y="459.9962823896749" as="geometry">
            <mxPoint x="-80" y="-232" as="offset" />
          </mxGeometry>
        </mxCell>
        <mxCell id="mY_ouZyj6XTswNFIIjPH-92" value="" style="endArrow=none;html=1;rounded=0;entryX=0.5;entryY=0;entryDx=0;entryDy=0;exitX=0.5;exitY=1;exitDx=0;exitDy=0;" parent="1" source="mY_ouZyj6XTswNFIIjPH-7" target="mY_ouZyj6XTswNFIIjPH-89" edge="1">
          <mxGeometry relative="1" as="geometry">
            <mxPoint x="560" y="205" as="sourcePoint" />
            <mxPoint x="570" y="365" as="targetPoint" />
          </mxGeometry>
        </mxCell>
        <mxCell id="mY_ouZyj6XTswNFIIjPH-94" value="CA_EXAM" style="whiteSpace=wrap;html=1;align=center;" parent="1" vertex="1">
          <mxGeometry x="590" y="400" width="100" height="40" as="geometry" />
        </mxCell>
        <mxCell id="mY_ouZyj6XTswNFIIjPH-97" value="" style="endArrow=none;html=1;rounded=0;exitX=0.5;exitY=1;exitDx=0;exitDy=0;entryX=0;entryY=0.25;entryDx=0;entryDy=0;" parent="1" source="mY_ouZyj6XTswNFIIjPH-89" target="mY_ouZyj6XTswNFIIjPH-94" edge="1">
          <mxGeometry relative="1" as="geometry">
            <mxPoint x="370" y="470" as="sourcePoint" />
            <mxPoint x="530" y="470" as="targetPoint" />
          </mxGeometry>
        </mxCell>
        <mxCell id="mY_ouZyj6XTswNFIIjPH-98" value="N" style="resizable=0;html=1;whiteSpace=wrap;align=right;verticalAlign=bottom;" parent="mY_ouZyj6XTswNFIIjPH-97" connectable="0" vertex="1">
          <mxGeometry x="1" relative="1" as="geometry">
            <mxPoint x="-5" y="-10" as="offset" />
          </mxGeometry>
        </mxCell>
        <mxCell id="mY_ouZyj6XTswNFIIjPH-100" value="&lt;u&gt;Course_code&lt;/u&gt;" style="ellipse;whiteSpace=wrap;html=1;align=center;" parent="1" vertex="1">
          <mxGeometry x="700" y="310" width="90" height="30" as="geometry" />
        </mxCell>
        <mxCell id="mY_ouZyj6XTswNFIIjPH-101" value="Course_name" style="ellipse;whiteSpace=wrap;html=1;align=center;" parent="1" vertex="1">
          <mxGeometry x="750" y="370" width="90" height="30" as="geometry" />
        </mxCell>
        <mxCell id="mY_ouZyj6XTswNFIIjPH-102" value="Date" style="ellipse;whiteSpace=wrap;html=1;align=center;" parent="1" vertex="1">
          <mxGeometry x="710" y="520" width="70" height="30" as="geometry" />
        </mxCell>
        <mxCell id="mY_ouZyj6XTswNFIIjPH-103" value="CA_status" style="ellipse;whiteSpace=wrap;html=1;align=center;" parent="1" vertex="1">
          <mxGeometry x="760" y="430" width="70" height="30" as="geometry" />
        </mxCell>
        <mxCell id="gb-kkly-whPDWEvQ6M76-1" value="" style="endArrow=none;html=1;rounded=0;exitX=0;exitY=1;exitDx=0;exitDy=0;entryX=0.75;entryY=0;entryDx=0;entryDy=0;" parent="1" source="mY_ouZyj6XTswNFIIjPH-100" target="mY_ouZyj6XTswNFIIjPH-94" edge="1">
          <mxGeometry relative="1" as="geometry">
            <mxPoint x="645" y="350" as="sourcePoint" />
            <mxPoint x="650" y="410" as="targetPoint" />
          </mxGeometry>
        </mxCell>
        <mxCell id="gb-kkly-whPDWEvQ6M76-2" value="" style="endArrow=none;html=1;rounded=0;exitX=0;exitY=0.5;exitDx=0;exitDy=0;entryX=1;entryY=0.25;entryDx=0;entryDy=0;" parent="1" source="mY_ouZyj6XTswNFIIjPH-101" target="mY_ouZyj6XTswNFIIjPH-94" edge="1">
          <mxGeometry relative="1" as="geometry">
            <mxPoint x="720" y="346" as="sourcePoint" />
            <mxPoint x="675" y="410" as="targetPoint" />
          </mxGeometry>
        </mxCell>
        <mxCell id="gb-kkly-whPDWEvQ6M76-3" value="" style="endArrow=none;html=1;rounded=0;exitX=0.071;exitY=0.239;exitDx=0;exitDy=0;entryX=1;entryY=0.75;entryDx=0;entryDy=0;exitPerimeter=0;" parent="1" source="mY_ouZyj6XTswNFIIjPH-103" target="mY_ouZyj6XTswNFIIjPH-94" edge="1">
          <mxGeometry relative="1" as="geometry">
            <mxPoint x="774.2" y="467.1600000000001" as="sourcePoint" />
            <mxPoint x="700" y="440" as="targetPoint" />
          </mxGeometry>
        </mxCell>
        <mxCell id="gb-kkly-whPDWEvQ6M76-4" value="" style="endArrow=none;html=1;rounded=0;exitX=0.298;exitY=0.017;exitDx=0;exitDy=0;entryX=0.867;entryY=1.033;entryDx=0;entryDy=0;exitPerimeter=0;entryPerimeter=0;" parent="1" source="mY_ouZyj6XTswNFIIjPH-102" target="mY_ouZyj6XTswNFIIjPH-94" edge="1">
          <mxGeometry relative="1" as="geometry">
            <mxPoint x="775" y="472" as="sourcePoint" />
            <mxPoint x="700" y="440" as="targetPoint" />
          </mxGeometry>
        </mxCell>
        <mxCell id="gb-kkly-whPDWEvQ6M76-5" value="HAS" style="shape=rhombus;perimeter=rhombusPerimeter;whiteSpace=wrap;html=1;align=center;" parent="1" vertex="1">
          <mxGeometry x="530" y="500" width="90" height="50" as="geometry" />
        </mxCell>
        <mxCell id="gb-kkly-whPDWEvQ6M76-6" value="" style="endArrow=none;html=1;rounded=0;entryX=0.5;entryY=0;entryDx=0;entryDy=0;exitX=0.358;exitY=1.075;exitDx=0;exitDy=0;exitPerimeter=0;" parent="1" source="mY_ouZyj6XTswNFIIjPH-94" target="gb-kkly-whPDWEvQ6M76-5" edge="1">
          <mxGeometry relative="1" as="geometry">
            <mxPoint x="565" y="415" as="sourcePoint" />
            <mxPoint x="470" y="495" as="targetPoint" />
          </mxGeometry>
        </mxCell>
        <mxCell id="gb-kkly-whPDWEvQ6M76-7" value="1" style="resizable=0;html=1;whiteSpace=wrap;align=right;verticalAlign=bottom;" parent="gb-kkly-whPDWEvQ6M76-6" connectable="0" vertex="1">
          <mxGeometry x="1" relative="1" as="geometry">
            <mxPoint x="-5" y="-270" as="offset" />
          </mxGeometry>
        </mxCell>
        <mxCell id="gb-kkly-whPDWEvQ6M76-8" value="" style="endArrow=none;html=1;rounded=0;exitX=0.5;exitY=1;exitDx=0;exitDy=0;entryX=0.4;entryY=0;entryDx=0;entryDy=0;entryPerimeter=0;" parent="1" source="gb-kkly-whPDWEvQ6M76-5" target="gb-kkly-whPDWEvQ6M76-10" edge="1">
          <mxGeometry relative="1" as="geometry">
            <mxPoint x="545" y="560" as="sourcePoint" />
            <mxPoint x="590" y="650" as="targetPoint" />
          </mxGeometry>
        </mxCell>
        <mxCell id="gb-kkly-whPDWEvQ6M76-10" value="CA_MARKS" style="whiteSpace=wrap;html=1;align=center;" parent="1" vertex="1">
          <mxGeometry x="490" y="615" width="100" height="40" as="geometry" />
        </mxCell>
        <mxCell id="gb-kkly-whPDWEvQ6M76-11" value="&lt;u&gt;CA_ID&lt;/u&gt;" style="ellipse;whiteSpace=wrap;html=1;align=center;" parent="1" vertex="1">
          <mxGeometry x="620" y="550" width="70" height="30" as="geometry" />
        </mxCell>
        <mxCell id="gb-kkly-whPDWEvQ6M76-12" value="&lt;u&gt;Reg_No&lt;/u&gt;" style="ellipse;whiteSpace=wrap;html=1;align=center;" parent="1" vertex="1">
          <mxGeometry x="660" y="610" width="70" height="30" as="geometry" />
        </mxCell>
        <mxCell id="gb-kkly-whPDWEvQ6M76-13" value="Course_code" style="ellipse;whiteSpace=wrap;html=1;align=center;" parent="1" vertex="1">
          <mxGeometry x="660" y="690" width="100" height="30" as="geometry" />
        </mxCell>
        <mxCell id="gb-kkly-whPDWEvQ6M76-14" value="CA_type" style="ellipse;whiteSpace=wrap;html=1;align=center;" parent="1" vertex="1">
          <mxGeometry x="550" y="720" width="70" height="30" as="geometry" />
        </mxCell>
        <mxCell id="gb-kkly-whPDWEvQ6M76-15" value="Marks_Attained&amp;nbsp;" style="ellipse;whiteSpace=wrap;html=1;align=center;" parent="1" vertex="1">
          <mxGeometry x="400" y="710" width="107.5" height="30" as="geometry" />
        </mxCell>
        <mxCell id="gb-kkly-whPDWEvQ6M76-16" value="" style="endArrow=none;html=1;rounded=0;exitX=0.31;exitY=1.017;exitDx=0;exitDy=0;entryX=0.867;entryY=-0.008;entryDx=0;entryDy=0;exitPerimeter=0;entryPerimeter=0;" parent="1" source="gb-kkly-whPDWEvQ6M76-11" target="gb-kkly-whPDWEvQ6M76-10" edge="1">
          <mxGeometry relative="1" as="geometry">
            <mxPoint x="650" y="615" as="sourcePoint" />
            <mxPoint x="590" y="640" as="targetPoint" />
          </mxGeometry>
        </mxCell>
        <mxCell id="gb-kkly-whPDWEvQ6M76-17" value="" style="endArrow=none;html=1;rounded=0;exitX=0;exitY=0.5;exitDx=0;exitDy=0;entryX=1;entryY=0.5;entryDx=0;entryDy=0;" parent="1" source="gb-kkly-whPDWEvQ6M76-12" target="gb-kkly-whPDWEvQ6M76-10" edge="1">
          <mxGeometry relative="1" as="geometry">
            <mxPoint x="632" y="601" as="sourcePoint" />
            <mxPoint x="587" y="640" as="targetPoint" />
          </mxGeometry>
        </mxCell>
        <mxCell id="gb-kkly-whPDWEvQ6M76-18" value="" style="endArrow=none;html=1;rounded=0;exitX=0.31;exitY=-0.011;exitDx=0;exitDy=0;entryX=0.95;entryY=1.054;entryDx=0;entryDy=0;exitPerimeter=0;entryPerimeter=0;" parent="1" source="gb-kkly-whPDWEvQ6M76-13" target="gb-kkly-whPDWEvQ6M76-10" edge="1">
          <mxGeometry relative="1" as="geometry">
            <mxPoint x="670" y="645" as="sourcePoint" />
            <mxPoint x="600" y="660" as="targetPoint" />
          </mxGeometry>
        </mxCell>
        <mxCell id="gb-kkly-whPDWEvQ6M76-19" value="" style="endArrow=none;html=1;rounded=0;exitX=0.5;exitY=0;exitDx=0;exitDy=0;entryX=0.608;entryY=1.033;entryDx=0;entryDy=0;entryPerimeter=0;" parent="1" source="gb-kkly-whPDWEvQ6M76-14" target="gb-kkly-whPDWEvQ6M76-10" edge="1">
          <mxGeometry relative="1" as="geometry">
            <mxPoint x="682" y="730" as="sourcePoint" />
            <mxPoint x="595" y="682" as="targetPoint" />
          </mxGeometry>
        </mxCell>
        <mxCell id="gb-kkly-whPDWEvQ6M76-20" value="" style="endArrow=none;html=1;rounded=0;exitX=0.595;exitY=0.072;exitDx=0;exitDy=0;exitPerimeter=0;entryX=0.2;entryY=1.033;entryDx=0;entryDy=0;entryPerimeter=0;" parent="1" source="gb-kkly-whPDWEvQ6M76-15" target="gb-kkly-whPDWEvQ6M76-10" edge="1">
          <mxGeometry relative="1" as="geometry">
            <mxPoint x="514" y="750" as="sourcePoint" />
            <mxPoint x="500" y="680" as="targetPoint" />
          </mxGeometry>
        </mxCell>
        <mxCell id="gb-kkly-whPDWEvQ6M76-22" value="STAFF" style="whiteSpace=wrap;html=1;align=center;" parent="1" vertex="1">
          <mxGeometry x="120.02999999999997" y="860" width="100" height="40" as="geometry" />
        </mxCell>
        <mxCell id="gb-kkly-whPDWEvQ6M76-23" value="" style="whiteSpace=wrap;html=1;align=center;" parent="1" vertex="1">
          <mxGeometry x="-419.97" y="700" width="180" height="40" as="geometry" />
        </mxCell>
        <mxCell id="gb-kkly-whPDWEvQ6M76-24" value="FINAL_MARKS" style="whiteSpace=wrap;html=1;align=center;" parent="1" vertex="1">
          <mxGeometry x="-459.97" y="365" width="120" height="40" as="geometry" />
        </mxCell>
        <mxCell id="gb-kkly-whPDWEvQ6M76-25" value="Name" style="ellipse;whiteSpace=wrap;html=1;align=center;" parent="1" vertex="1">
          <mxGeometry x="100.02999999999997" y="790" width="70" height="30" as="geometry" />
        </mxCell>
        <mxCell id="gb-kkly-whPDWEvQ6M76-26" value="Fname" style="ellipse;whiteSpace=wrap;html=1;align=center;" parent="1" vertex="1">
          <mxGeometry x="55.02999999999997" y="730" width="70" height="30" as="geometry" />
        </mxCell>
        <mxCell id="gb-kkly-whPDWEvQ6M76-27" value="Lname" style="ellipse;whiteSpace=wrap;html=1;align=center;" parent="1" vertex="1">
          <mxGeometry x="145.02999999999997" y="730" width="70" height="30" as="geometry" />
        </mxCell>
        <mxCell id="gb-kkly-whPDWEvQ6M76-28" value="" style="endArrow=none;html=1;rounded=0;exitX=0.5;exitY=1;exitDx=0;exitDy=0;entryX=0;entryY=0;entryDx=0;entryDy=0;" parent="1" target="gb-kkly-whPDWEvQ6M76-25" edge="1">
          <mxGeometry relative="1" as="geometry">
            <mxPoint x="90.02999999999975" y="760" as="sourcePoint" />
            <mxPoint x="180.03" y="845" as="targetPoint" />
          </mxGeometry>
        </mxCell>
        <mxCell id="gb-kkly-whPDWEvQ6M76-29" value="" style="endArrow=none;html=1;rounded=0;exitX=0.5;exitY=1;exitDx=0;exitDy=0;entryX=1;entryY=0;entryDx=0;entryDy=0;" parent="1" target="gb-kkly-whPDWEvQ6M76-25" edge="1">
          <mxGeometry relative="1" as="geometry">
            <mxPoint x="175.02999999999975" y="760" as="sourcePoint" />
            <mxPoint x="150.02999999999997" y="780" as="targetPoint" />
          </mxGeometry>
        </mxCell>
        <mxCell id="gb-kkly-whPDWEvQ6M76-30" value="" style="endArrow=none;html=1;rounded=0;exitX=0.5;exitY=1;exitDx=0;exitDy=0;entryX=0.308;entryY=-0.071;entryDx=0;entryDy=0;entryPerimeter=0;" parent="1" source="gb-kkly-whPDWEvQ6M76-25" target="gb-kkly-whPDWEvQ6M76-22" edge="1">
          <mxGeometry relative="1" as="geometry">
            <mxPoint x="180.03" y="735" as="sourcePoint" />
            <mxPoint x="170.02999999999997" y="804" as="targetPoint" />
          </mxGeometry>
        </mxCell>
        <mxCell id="gb-kkly-whPDWEvQ6M76-32" value="Email" style="ellipse;whiteSpace=wrap;html=1;align=center;" parent="1" vertex="1">
          <mxGeometry x="210.03" y="760" width="70" height="30" as="geometry" />
        </mxCell>
        <mxCell id="gb-kkly-whPDWEvQ6M76-33" value="Designation" style="ellipse;whiteSpace=wrap;html=1;align=center;" parent="1" vertex="1">
          <mxGeometry x="55.02999999999997" y="930" width="90" height="30" as="geometry" />
        </mxCell>
        <mxCell id="gb-kkly-whPDWEvQ6M76-34" value="Start_work_date" style="ellipse;whiteSpace=wrap;html=1;align=center;" parent="1" vertex="1">
          <mxGeometry x="115.02999999999997" y="1000" width="110" height="30" as="geometry" />
        </mxCell>
        <mxCell id="gb-kkly-whPDWEvQ6M76-35" value="Dep_name" style="ellipse;whiteSpace=wrap;html=1;align=center;" parent="1" vertex="1">
          <mxGeometry x="225.03" y="960" width="70" height="30" as="geometry" />
        </mxCell>
        <mxCell id="gb-kkly-whPDWEvQ6M76-37" value="" style="endArrow=none;html=1;rounded=0;exitX=0.75;exitY=0;exitDx=0;exitDy=0;entryX=0.5;entryY=1;entryDx=0;entryDy=0;" parent="1" source="gb-kkly-whPDWEvQ6M76-22" target="gb-kkly-whPDWEvQ6M76-32" edge="1">
          <mxGeometry relative="1" as="geometry">
            <mxPoint x="207.53" y="860" as="sourcePoint" />
            <mxPoint x="232.53" y="775" as="targetPoint" />
          </mxGeometry>
        </mxCell>
        <mxCell id="gb-kkly-whPDWEvQ6M76-38" value="" style="endArrow=none;html=1;rounded=0;exitX=1;exitY=0.5;exitDx=0;exitDy=0;entryX=0.333;entryY=0.933;entryDx=0;entryDy=0;entryPerimeter=0;" parent="1" source="gb-kkly-whPDWEvQ6M76-22" edge="1">
          <mxGeometry relative="1" as="geometry">
            <mxPoint x="205.03" y="870" as="sourcePoint" />
            <mxPoint x="300" y="847.99" as="targetPoint" />
          </mxGeometry>
        </mxCell>
        <mxCell id="gb-kkly-whPDWEvQ6M76-39" value="" style="endArrow=none;html=1;rounded=0;entryX=0;entryY=0;entryDx=0;entryDy=0;" parent="1" source="gb-kkly-whPDWEvQ6M76-22" target="gb-kkly-whPDWEvQ6M76-35" edge="1">
          <mxGeometry relative="1" as="geometry">
            <mxPoint x="230.03" y="890" as="sourcePoint" />
            <mxPoint x="230.04999999999998" y="960" as="targetPoint" />
          </mxGeometry>
        </mxCell>
        <mxCell id="gb-kkly-whPDWEvQ6M76-40" value="" style="endArrow=none;html=1;rounded=0;exitX=0.5;exitY=1;exitDx=0;exitDy=0;entryX=0.5;entryY=0;entryDx=0;entryDy=0;" parent="1" source="gb-kkly-whPDWEvQ6M76-22" target="gb-kkly-whPDWEvQ6M76-34" edge="1">
          <mxGeometry relative="1" as="geometry">
            <mxPoint x="415" y="940" as="sourcePoint" />
            <mxPoint x="360" y="1040" as="targetPoint" />
          </mxGeometry>
        </mxCell>
        <mxCell id="gb-kkly-whPDWEvQ6M76-41" value="" style="endArrow=none;html=1;rounded=0;exitX=0.25;exitY=1;exitDx=0;exitDy=0;entryX=0.631;entryY=-0.011;entryDx=0;entryDy=0;entryPerimeter=0;" parent="1" source="gb-kkly-whPDWEvQ6M76-22" target="gb-kkly-whPDWEvQ6M76-33" edge="1">
          <mxGeometry relative="1" as="geometry">
            <mxPoint x="180.03" y="910" as="sourcePoint" />
            <mxPoint x="175.03" y="990" as="targetPoint" />
          </mxGeometry>
        </mxCell>
        <mxCell id="gb-kkly-whPDWEvQ6M76-42" value="&lt;u&gt;Course_code&lt;/u&gt;" style="ellipse;whiteSpace=wrap;html=1;align=center;" parent="1" vertex="1">
          <mxGeometry x="-557.5" y="600" width="85" height="30" as="geometry" />
        </mxCell>
        <mxCell id="gb-kkly-whPDWEvQ6M76-43" value="CA_marks_presentage" style="ellipse;whiteSpace=wrap;html=1;align=center;" parent="1" vertex="1">
          <mxGeometry x="-567.5" y="780" width="145" height="30" as="geometry" />
        </mxCell>
        <mxCell id="gb-kkly-whPDWEvQ6M76-44" value="Course_name" style="ellipse;whiteSpace=wrap;html=1;align=center;" parent="1" vertex="1">
          <mxGeometry x="-410" y="810" width="90" height="30" as="geometry" />
        </mxCell>
        <mxCell id="gb-kkly-whPDWEvQ6M76-45" value="Attendance_precentage" style="ellipse;whiteSpace=wrap;html=1;align=center;" parent="1" vertex="1">
          <mxGeometry x="-320" y="800" width="160" height="30" as="geometry" />
        </mxCell>
        <mxCell id="gb-kkly-whPDWEvQ6M76-48" value="" style="endArrow=none;html=1;rounded=0;exitX=0.964;exitY=0.739;exitDx=0;exitDy=0;entryX=0;entryY=0.5;entryDx=0;entryDy=0;exitPerimeter=0;" parent="1" source="gb-kkly-whPDWEvQ6M76-42" target="gb-kkly-whPDWEvQ6M76-23" edge="1">
          <mxGeometry relative="1" as="geometry">
            <mxPoint x="-307.5" y="710" as="sourcePoint" />
            <mxPoint x="-240.5" y="770" as="targetPoint" />
          </mxGeometry>
        </mxCell>
        <mxCell id="gb-kkly-whPDWEvQ6M76-49" value="" style="endArrow=none;html=1;rounded=0;exitX=0.821;exitY=-0.011;exitDx=0;exitDy=0;entryX=0.083;entryY=1.054;entryDx=0;entryDy=0;exitPerimeter=0;entryPerimeter=0;" parent="1" source="gb-kkly-whPDWEvQ6M76-43" target="gb-kkly-whPDWEvQ6M76-23" edge="1">
          <mxGeometry relative="1" as="geometry">
            <mxPoint x="-330.5" y="792" as="sourcePoint" />
            <mxPoint x="-282.5" y="790" as="targetPoint" />
          </mxGeometry>
        </mxCell>
        <mxCell id="gb-kkly-whPDWEvQ6M76-50" value="" style="endArrow=none;html=1;rounded=0;exitX=0.619;exitY=-0.039;exitDx=0;exitDy=0;entryX=0.417;entryY=1.075;entryDx=0;entryDy=0;exitPerimeter=0;entryPerimeter=0;" parent="1" source="gb-kkly-whPDWEvQ6M76-44" target="gb-kkly-whPDWEvQ6M76-23" edge="1">
          <mxGeometry relative="1" as="geometry">
            <mxPoint x="-340.5" y="850" as="sourcePoint" />
            <mxPoint x="-274.5" y="812" as="targetPoint" />
          </mxGeometry>
        </mxCell>
        <mxCell id="gb-kkly-whPDWEvQ6M76-51" value="" style="endArrow=none;html=1;rounded=0;exitX=0.5;exitY=0;exitDx=0;exitDy=0;entryX=0.75;entryY=1;entryDx=0;entryDy=0;" parent="1" source="gb-kkly-whPDWEvQ6M76-45" target="gb-kkly-whPDWEvQ6M76-23" edge="1">
          <mxGeometry relative="1" as="geometry">
            <mxPoint x="-259.5" y="869" as="sourcePoint" />
            <mxPoint x="-240.5" y="813" as="targetPoint" />
          </mxGeometry>
        </mxCell>
        <mxCell id="gb-kkly-whPDWEvQ6M76-52" value="Course_code" style="ellipse;whiteSpace=wrap;html=1;align=center;" parent="1" vertex="1">
          <mxGeometry x="-612.47" y="395" width="90" height="30" as="geometry" />
        </mxCell>
        <mxCell id="gb-kkly-whPDWEvQ6M76-53" value="Course_name" style="ellipse;whiteSpace=wrap;html=1;align=center;" parent="1" vertex="1">
          <mxGeometry x="-579.97" y="465" width="90" height="30" as="geometry" />
        </mxCell>
        <mxCell id="gb-kkly-whPDWEvQ6M76-54" value="Grade" style="ellipse;whiteSpace=wrap;html=1;align=center;" parent="1" vertex="1">
          <mxGeometry x="-459.97" y="495" width="70" height="30" as="geometry" />
        </mxCell>
        <mxCell id="gb-kkly-whPDWEvQ6M76-55" value="SGPA_value" style="ellipse;whiteSpace=wrap;html=1;align=center;" parent="1" vertex="1">
          <mxGeometry x="-379.97" y="475" width="90" height="30" as="geometry" />
        </mxCell>
        <mxCell id="gb-kkly-whPDWEvQ6M76-58" value="" style="endArrow=none;html=1;rounded=0;exitX=0.429;exitY=0;exitDx=0;exitDy=0;entryX=0.5;entryY=1;entryDx=0;entryDy=0;exitPerimeter=0;" parent="1" target="gb-kkly-whPDWEvQ6M76-24" edge="1">
          <mxGeometry relative="1" as="geometry">
            <mxPoint x="-419.9399999999998" y="495" as="sourcePoint" />
            <mxPoint x="-684.97" y="475" as="targetPoint" />
          </mxGeometry>
        </mxCell>
        <mxCell id="gb-kkly-whPDWEvQ6M76-59" value="" style="endArrow=none;html=1;rounded=0;exitX=0.381;exitY=-0.122;exitDx=0;exitDy=0;entryX=0.75;entryY=1;entryDx=0;entryDy=0;exitPerimeter=0;" parent="1" source="gb-kkly-whPDWEvQ6M76-55" target="gb-kkly-whPDWEvQ6M76-24" edge="1">
          <mxGeometry relative="1" as="geometry">
            <mxPoint x="-429.97" y="505" as="sourcePoint" />
            <mxPoint x="-399.97" y="415" as="targetPoint" />
          </mxGeometry>
        </mxCell>
        <mxCell id="gb-kkly-whPDWEvQ6M76-60" value="" style="endArrow=none;html=1;rounded=0;exitX=0.75;exitY=0.044;exitDx=0;exitDy=0;entryX=0.25;entryY=1;entryDx=0;entryDy=0;exitPerimeter=0;" parent="1" source="gb-kkly-whPDWEvQ6M76-53" target="gb-kkly-whPDWEvQ6M76-24" edge="1">
          <mxGeometry relative="1" as="geometry">
            <mxPoint x="-332.97" y="481" as="sourcePoint" />
            <mxPoint x="-374.97" y="415" as="targetPoint" />
          </mxGeometry>
        </mxCell>
        <mxCell id="gb-kkly-whPDWEvQ6M76-62" value="" style="endArrow=none;html=1;rounded=0;exitX=0.964;exitY=0.739;exitDx=0;exitDy=0;entryX=0;entryY=0.5;entryDx=0;entryDy=0;exitPerimeter=0;" parent="1" source="gb-kkly-whPDWEvQ6M76-52" target="gb-kkly-whPDWEvQ6M76-24" edge="1">
          <mxGeometry relative="1" as="geometry">
            <mxPoint x="-414.97" y="295" as="sourcePoint" />
            <mxPoint x="-406.97" y="372" as="targetPoint" />
          </mxGeometry>
        </mxCell>
        <mxCell id="gb-kkly-whPDWEvQ6M76-63" value="Phone_no" style="ellipse;shape=doubleEllipse;margin=3;whiteSpace=wrap;html=1;align=center;" parent="1" vertex="1">
          <mxGeometry x="295.03" y="830" width="90" height="30" as="geometry" />
        </mxCell>
        <mxCell id="gb-kkly-whPDWEvQ6M76-66" value="Status" style="ellipse;whiteSpace=wrap;html=1;align=center;" parent="1" vertex="1">
          <mxGeometry x="-359.97" y="595" width="70" height="30" as="geometry" />
        </mxCell>
        <mxCell id="gb-kkly-whPDWEvQ6M76-67" value="" style="endArrow=none;html=1;rounded=0;exitX=0.405;exitY=1.044;exitDx=0;exitDy=0;entryX=0.615;entryY=0.033;entryDx=0;entryDy=0;entryPerimeter=0;exitPerimeter=0;" parent="1" source="gb-kkly-whPDWEvQ6M76-66" target="gb-kkly-whPDWEvQ6M76-23" edge="1">
          <mxGeometry relative="1" as="geometry">
            <mxPoint x="-307.5" y="710" as="sourcePoint" />
            <mxPoint x="-228.5" y="770" as="targetPoint" />
          </mxGeometry>
        </mxCell>
        <mxCell id="gb-kkly-whPDWEvQ6M76-69" value="&lt;u&gt;CGPA_Value&lt;/u&gt;" style="ellipse;whiteSpace=wrap;html=1;align=center;" parent="1" vertex="1">
          <mxGeometry x="-409.97" y="255" width="90" height="30" as="geometry" />
        </mxCell>
        <mxCell id="gb-kkly-whPDWEvQ6M76-70" value="" style="endArrow=none;html=1;rounded=0;exitX=0.417;exitY=1.072;exitDx=0;exitDy=0;entryX=0.7;entryY=0;entryDx=0;entryDy=0;entryPerimeter=0;exitPerimeter=0;" parent="1" source="gb-kkly-whPDWEvQ6M76-69" target="gb-kkly-whPDWEvQ6M76-24" edge="1">
          <mxGeometry relative="1" as="geometry">
            <mxPoint x="-474.97" y="295" as="sourcePoint" />
            <mxPoint x="-406.97" y="372" as="targetPoint" />
          </mxGeometry>
        </mxCell>
        <mxCell id="gb-kkly-whPDWEvQ6M76-71" value="1" style="resizable=0;html=1;whiteSpace=wrap;align=right;verticalAlign=bottom;" parent="1" connectable="0" vertex="1">
          <mxGeometry x="550.0042519569299" y="239.99715823730298" as="geometry">
            <mxPoint x="73" y="228" as="offset" />
          </mxGeometry>
        </mxCell>
        <mxCell id="gb-kkly-whPDWEvQ6M76-72" value="N" style="resizable=0;html=1;whiteSpace=wrap;align=right;verticalAlign=bottom;" parent="1" connectable="0" vertex="1">
          <mxGeometry x="529.9967282499681" y="609.9990283478039" as="geometry" />
        </mxCell>
        <mxCell id="q8xJLjo4GI2bg4dG2n5e-1" value="" style="endArrow=none;html=1;rounded=0;exitX=0.5;exitY=1;exitDx=0;exitDy=0;entryX=0.75;entryY=0;entryDx=0;entryDy=0;" parent="1" source="mY_ouZyj6XTswNFIIjPH-38" target="mY_ouZyj6XTswNFIIjPH-1" edge="1">
          <mxGeometry relative="1" as="geometry">
            <mxPoint x="-10" y="70" as="sourcePoint" />
            <mxPoint x="30" y="160" as="targetPoint" />
            <Array as="points">
              <mxPoint x="50" y="140" />
            </Array>
          </mxGeometry>
        </mxCell>
        <mxCell id="rq-YKpa1pvcnpxvcm__O-1" value="&lt;u&gt;CA_Number&lt;/u&gt;" style="ellipse;whiteSpace=wrap;html=1;" parent="1" vertex="1">
          <mxGeometry x="620" y="280" width="75" height="40" as="geometry" />
        </mxCell>
        <mxCell id="rq-YKpa1pvcnpxvcm__O-2" value="" style="endArrow=none;html=1;rounded=0;exitX=0.5;exitY=0;exitDx=0;exitDy=0;" parent="1" source="mY_ouZyj6XTswNFIIjPH-94" target="rq-YKpa1pvcnpxvcm__O-1" edge="1">
          <mxGeometry width="50" height="50" relative="1" as="geometry">
            <mxPoint x="634.06" y="395.23" as="sourcePoint" />
            <mxPoint x="655.9399860384106" y="320.0041231981854" as="targetPoint" />
          </mxGeometry>
        </mxCell>
        <mxCell id="rq-YKpa1pvcnpxvcm__O-5" value="&lt;u&gt;Staff_ID&lt;/u&gt;" style="ellipse;whiteSpace=wrap;html=1;" parent="1" vertex="1">
          <mxGeometry x="-10" y="840" width="80" height="50" as="geometry" />
        </mxCell>
        <mxCell id="rq-YKpa1pvcnpxvcm__O-7" value="" style="endArrow=none;html=1;rounded=0;" parent="1" source="gb-kkly-whPDWEvQ6M76-22" target="rq-YKpa1pvcnpxvcm__O-5" edge="1">
          <mxGeometry width="50" height="50" relative="1" as="geometry">
            <mxPoint x="20.029999999999973" y="905" as="sourcePoint" />
            <mxPoint x="78.31427124746187" y="862.6776695296637" as="targetPoint" />
          </mxGeometry>
        </mxCell>
        <mxCell id="rq-YKpa1pvcnpxvcm__O-8" value="&lt;u&gt;Eligibility_ID&lt;/u&gt;" style="ellipse;whiteSpace=wrap;html=1;" parent="1" vertex="1">
          <mxGeometry x="-565" y="680" width="92.5" height="50" as="geometry" />
        </mxCell>
        <mxCell id="rq-YKpa1pvcnpxvcm__O-9" value="" style="endArrow=none;html=1;rounded=0;exitX=0;exitY=0.75;exitDx=0;exitDy=0;entryX=1;entryY=0.5;entryDx=0;entryDy=0;" parent="1" source="gb-kkly-whPDWEvQ6M76-23" target="rq-YKpa1pvcnpxvcm__O-8" edge="1">
          <mxGeometry width="50" height="50" relative="1" as="geometry">
            <mxPoint x="-562.5" y="770" as="sourcePoint" />
            <mxPoint x="-512.5" y="720" as="targetPoint" />
          </mxGeometry>
        </mxCell>
        <mxCell id="rq-YKpa1pvcnpxvcm__O-10" value="&lt;u&gt;Final_marks_ID&lt;/u&gt;" style="ellipse;whiteSpace=wrap;html=1;" parent="1" vertex="1">
          <mxGeometry x="-590" y="270" width="90" height="50" as="geometry" />
        </mxCell>
        <mxCell id="rq-YKpa1pvcnpxvcm__O-11" value="" style="endArrow=none;html=1;rounded=0;" parent="1" source="rq-YKpa1pvcnpxvcm__O-10" target="gb-kkly-whPDWEvQ6M76-24" edge="1">
          <mxGeometry width="50" height="50" relative="1" as="geometry">
            <mxPoint x="-599.97" y="445" as="sourcePoint" />
            <mxPoint x="-549.97" y="395" as="targetPoint" />
          </mxGeometry>
        </mxCell>
        <mxCell id="rq-YKpa1pvcnpxvcm__O-12" value="HAS" style="shape=rhombus;perimeter=rhombusPerimeter;whiteSpace=wrap;html=1;align=center;" parent="1" vertex="1">
          <mxGeometry x="410" y="355" width="90" height="50" as="geometry" />
        </mxCell>
        <mxCell id="rq-YKpa1pvcnpxvcm__O-13" value="" style="endArrow=none;html=1;rounded=0;" parent="1" source="mY_ouZyj6XTswNFIIjPH-1" target="rq-YKpa1pvcnpxvcm__O-12" edge="1">
          <mxGeometry width="50" height="50" relative="1" as="geometry">
            <mxPoint x="210" y="370" as="sourcePoint" />
            <mxPoint x="258.7334801762113" y="264.5925110132158" as="targetPoint" />
          </mxGeometry>
        </mxCell>
        <mxCell id="rq-YKpa1pvcnpxvcm__O-14" value="" style="endArrow=none;html=1;rounded=0;exitX=0.18;exitY=0.075;exitDx=0;exitDy=0;exitPerimeter=0;" parent="1" source="gb-kkly-whPDWEvQ6M76-10" target="rq-YKpa1pvcnpxvcm__O-12" edge="1">
          <mxGeometry width="50" height="50" relative="1" as="geometry">
            <mxPoint x="520" y="610" as="sourcePoint" />
            <mxPoint x="420" y="330" as="targetPoint" />
          </mxGeometry>
        </mxCell>
        <mxCell id="rq-YKpa1pvcnpxvcm__O-15" value="HAS" style="shape=rhombus;perimeter=rhombusPerimeter;whiteSpace=wrap;html=1;align=center;" parent="1" vertex="1">
          <mxGeometry x="-270" y="330" width="90" height="50" as="geometry" />
        </mxCell>
        <mxCell id="rq-YKpa1pvcnpxvcm__O-16" value="" style="endArrow=none;html=1;rounded=0;" parent="1" source="gb-kkly-whPDWEvQ6M76-24" target="rq-YKpa1pvcnpxvcm__O-15" edge="1">
          <mxGeometry width="50" height="50" relative="1" as="geometry">
            <mxPoint x="-300" y="410" as="sourcePoint" />
            <mxPoint x="-250" y="360" as="targetPoint" />
          </mxGeometry>
        </mxCell>
        <mxCell id="rq-YKpa1pvcnpxvcm__O-17" value="" style="endArrow=none;html=1;rounded=0;exitX=1;exitY=0;exitDx=0;exitDy=0;" parent="1" source="rq-YKpa1pvcnpxvcm__O-15" edge="1">
          <mxGeometry width="50" height="50" relative="1" as="geometry">
            <mxPoint x="-194.97" y="360" as="sourcePoint" />
            <mxPoint y="190" as="targetPoint" />
          </mxGeometry>
        </mxCell>
        <mxCell id="rq-YKpa1pvcnpxvcm__O-22" value="FINAL_EXAM_SIT_STATUS" style="shape=ext;margin=3;double=1;whiteSpace=wrap;html=1;align=center;" parent="1" vertex="1">
          <mxGeometry x="-419.94" y="700" width="179.97" height="40" as="geometry" />
        </mxCell>
        <mxCell id="rq-YKpa1pvcnpxvcm__O-24" value="DEPENDS_ON" style="rhombus;whiteSpace=wrap;html=1;" parent="1" vertex="1">
          <mxGeometry x="-209.95" y="595" width="179.97" height="80" as="geometry" />
        </mxCell>
        <mxCell id="rq-YKpa1pvcnpxvcm__O-25" value="" style="endArrow=none;html=1;rounded=0;exitX=1;exitY=0;exitDx=0;exitDy=0;" parent="1" source="rq-YKpa1pvcnpxvcm__O-24" target="mY_ouZyj6XTswNFIIjPH-65" edge="1">
          <mxGeometry width="50" height="50" relative="1" as="geometry">
            <mxPoint x="-70" y="630" as="sourcePoint" />
            <mxPoint x="-20" y="580" as="targetPoint" />
          </mxGeometry>
        </mxCell>
        <mxCell id="rq-YKpa1pvcnpxvcm__O-26" value="" style="endArrow=none;html=1;rounded=0;entryX=0.189;entryY=0.712;entryDx=0;entryDy=0;entryPerimeter=0;" parent="1" source="rq-YKpa1pvcnpxvcm__O-22" target="rq-YKpa1pvcnpxvcm__O-24" edge="1">
          <mxGeometry width="50" height="50" relative="1" as="geometry">
            <mxPoint x="-219.97000000000003" y="720" as="sourcePoint" />
            <mxPoint x="-169.97000000000003" y="670" as="targetPoint" />
          </mxGeometry>
        </mxCell>
        <mxCell id="rq-YKpa1pvcnpxvcm__O-27" value="" style="endArrow=none;html=1;rounded=0;exitX=0.951;exitY=0.51;exitDx=0;exitDy=0;exitPerimeter=0;entryX=0;entryY=0.5;entryDx=0;entryDy=0;" parent="1" source="rq-YKpa1pvcnpxvcm__O-28" target="gb-kkly-whPDWEvQ6M76-10" edge="1">
          <mxGeometry width="50" height="50" relative="1" as="geometry">
            <mxPoint x="230.03" y="655" as="sourcePoint" />
            <mxPoint x="280.03" y="605" as="targetPoint" />
          </mxGeometry>
        </mxCell>
        <mxCell id="rq-YKpa1pvcnpxvcm__O-28" value="DEPENDS ON" style="rhombus;whiteSpace=wrap;html=1;" parent="1" vertex="1">
          <mxGeometry x="40" y="635" width="160" height="65" as="geometry" />
        </mxCell>
        <mxCell id="rq-YKpa1pvcnpxvcm__O-29" value="" style="endArrow=none;html=1;rounded=0;entryX=0;entryY=0.5;entryDx=0;entryDy=0;" parent="1" target="rq-YKpa1pvcnpxvcm__O-28" edge="1">
          <mxGeometry width="50" height="50" relative="1" as="geometry">
            <mxPoint x="-250" y="720" as="sourcePoint" />
            <mxPoint x="140" y="700" as="targetPoint" />
          </mxGeometry>
        </mxCell>
        <mxCell id="rq-YKpa1pvcnpxvcm__O-30" value="DEPENDS_ON" style="shape=rhombus;double=1;perimeter=rhombusPerimeter;whiteSpace=wrap;html=1;align=center;" parent="1" vertex="1">
          <mxGeometry x="40" y="630" width="160" height="70" as="geometry" />
        </mxCell>
        <mxCell id="rq-YKpa1pvcnpxvcm__O-31" value="DEPENDS_ON" style="shape=rhombus;double=1;perimeter=rhombusPerimeter;whiteSpace=wrap;html=1;align=center;" parent="1" vertex="1">
          <mxGeometry x="-210" y="592.5" width="180" height="85" as="geometry" />
        </mxCell>
        <mxCell id="rq-YKpa1pvcnpxvcm__O-32" value="1" style="text;html=1;strokeColor=none;fillColor=none;align=center;verticalAlign=middle;whiteSpace=wrap;rounded=0;" parent="1" vertex="1">
          <mxGeometry x="-80" y="210" width="60" height="30" as="geometry" />
        </mxCell>
        <mxCell id="rq-YKpa1pvcnpxvcm__O-33" value="M" style="text;html=1;strokeColor=none;fillColor=none;align=center;verticalAlign=middle;whiteSpace=wrap;rounded=0;" parent="1" vertex="1">
          <mxGeometry x="-339.97" y="340" width="60" height="20" as="geometry" />
        </mxCell>
        <mxCell id="rq-YKpa1pvcnpxvcm__O-35" value="1" style="text;html=1;strokeColor=none;fillColor=none;align=center;verticalAlign=middle;whiteSpace=wrap;rounded=0;" parent="1" vertex="1">
          <mxGeometry x="165.03" y="195" width="60" height="30" as="geometry" />
        </mxCell>
        <mxCell id="rq-YKpa1pvcnpxvcm__O-36" value="M" style="text;html=1;strokeColor=none;fillColor=none;align=center;verticalAlign=middle;whiteSpace=wrap;rounded=0;" parent="1" vertex="1">
          <mxGeometry x="440" y="470" width="60" height="30" as="geometry" />
        </mxCell>
        <mxCell id="rq-YKpa1pvcnpxvcm__O-37" value="1" style="text;html=1;strokeColor=none;fillColor=none;align=center;verticalAlign=middle;whiteSpace=wrap;rounded=0;" parent="1" vertex="1">
          <mxGeometry x="-100" y="580" width="60" height="30" as="geometry" />
        </mxCell>
        <mxCell id="rq-YKpa1pvcnpxvcm__O-39" value="1" style="text;html=1;strokeColor=none;fillColor=none;align=center;verticalAlign=middle;whiteSpace=wrap;rounded=0;" parent="1" vertex="1">
          <mxGeometry x="-270" y="652.5" width="60" height="30" as="geometry" />
        </mxCell>
        <mxCell id="rq-YKpa1pvcnpxvcm__O-40" value="1" style="text;html=1;strokeColor=none;fillColor=none;align=center;verticalAlign=middle;whiteSpace=wrap;rounded=0;" parent="1" vertex="1">
          <mxGeometry x="-200" y="677.5" width="60" height="30" as="geometry" />
        </mxCell>
        <mxCell id="rq-YKpa1pvcnpxvcm__O-41" value="1" style="text;html=1;strokeColor=none;fillColor=none;align=center;verticalAlign=middle;whiteSpace=wrap;rounded=0;" parent="1" vertex="1">
          <mxGeometry x="260" y="625" width="60" height="30" as="geometry" />
        </mxCell>
        <mxCell id="b7vOD8JFqofi8di6rYGB-1" value="HAS" style="shape=rhombus;perimeter=rhombusPerimeter;whiteSpace=wrap;html=1;align=center;" vertex="1" parent="1">
          <mxGeometry x="190" y="320" width="90" height="50" as="geometry" />
        </mxCell>
        <mxCell id="b7vOD8JFqofi8di6rYGB-3" value="" style="endArrow=none;html=1;rounded=0;entryX=0;entryY=1;entryDx=0;entryDy=0;" edge="1" parent="1" target="mY_ouZyj6XTswNFIIjPH-7">
          <mxGeometry width="50" height="50" relative="1" as="geometry">
            <mxPoint x="280" y="345" as="sourcePoint" />
            <mxPoint x="400" y="170" as="targetPoint" />
            <Array as="points">
              <mxPoint x="310" y="330" />
              <mxPoint x="330" y="300" />
              <mxPoint x="370" y="300" />
            </Array>
          </mxGeometry>
        </mxCell>
        <mxCell id="b7vOD8JFqofi8di6rYGB-4" value="" style="endArrow=none;html=1;rounded=0;entryX=0;entryY=0.5;entryDx=0;entryDy=0;exitX=0.668;exitY=0.057;exitDx=0;exitDy=0;exitPerimeter=0;" edge="1" parent="1" source="mY_ouZyj6XTswNFIIjPH-65" target="b7vOD8JFqofi8di6rYGB-1">
          <mxGeometry width="50" height="50" relative="1" as="geometry">
            <mxPoint x="350" y="430" as="sourcePoint" />
            <mxPoint x="400" y="380" as="targetPoint" />
          </mxGeometry>
        </mxCell>
        <mxCell id="b7vOD8JFqofi8di6rYGB-5" value="1" style="resizable=0;html=1;whiteSpace=wrap;align=right;verticalAlign=bottom;" connectable="0" vertex="1" parent="1">
          <mxGeometry x="579.6739666600538" y="240.36582481056928" as="geometry">
            <mxPoint x="-111" y="-14" as="offset" />
          </mxGeometry>
        </mxCell>
        <mxCell id="b7vOD8JFqofi8di6rYGB-7" value="1" style="resizable=0;html=1;whiteSpace=wrap;align=right;verticalAlign=bottom;" connectable="0" vertex="1" parent="1">
          <mxGeometry x="590.0039666600538" y="259.9958248105693" as="geometry">
            <mxPoint x="-424" y="135" as="offset" />
          </mxGeometry>
        </mxCell>
      </root>
    </mxGraphModel>
  </diagram>
</mxfile>
